<?xml version="1.0" standalone="yes"?>
<svg version="1.1" xmlns="http://www.w3.org/2000/svg" xmlns:xlink="http://www.w3.org/1999/xlink" xmlns:ev="http://www.w3.org/2001/xml-events" width="231" height="231" shape-rendering="crispEdges">
<rect width="11" height="11" x="0" y="0" style="fill:#000"/><rect width="11" height="11" x="11" y="0" style="fill:#000"/><rect width="11" height="11" x="22" y="0" style="fill:#000"/><rect width="11" height="11" x="33" y="0" style="fill:#000"/><rect width="11" height="11" x="44" y="0" style="fill:#000"/><rect width="11" height="11" x="55" y="0" style="fill:#000"/><rect width="11" height="11" x="66" y="0" style="fill:#000"/><rect width="11" height="11" x="110" y="0" style="fill:#000"/><rect width="11" height="11" x="154" y="0" style="fill:#000"/><rect width="11" height="11" x="165" y="0" style="fill:#000"/><rect width="11" height="11" x="176" y="0" style="fill:#000"/><rect width="11" height="11" x="187" y="0" style="fill:#000"/><rect width="11" height="11" x="198" y="0" style="fill:#000"/><rect width="11" height="11" x="209" y="0" style="fill:#000"/><rect width="11" height="11" x="220" y="0" style="fill:#000"/>
<rect width="11" height="11" x="0" y="11" style="fill:#000"/><rect width="11" height="11" x="66" y="11" style="fill:#000"/><rect width="11" height="11" x="132" y="11" style="fill:#000"/><rect width="11" height="11" x="154" y="11" style="fill:#000"/><rect width="11" height="11" x="220" y="11" style="fill:#000"/>
<rect width="11" height="11" x="0" y="22" style="fill:#000"/><rect width="11" height="11" x="22" y="22" style="fill:#000"/><rect width="11" height="11" x="33" y="22" style="fill:#000"/><rect width="11" height="11" x="44" y="22" style="fill:#000"/><rect width="11" height="11" x="66" y="22" style="fill:#000"/><rect width="11" height="11" x="88" y="22" style="fill:#000"/><rect width="11" height="11" x="110" y="22" style="fill:#000"/><rect width="11" height="11" x="121" y="22" style="fill:#000"/><rect width="11" height="11" x="154" y="22" style="fill:#000"/><rect width="11" height="11" x="176" y="22" style="fill:#000"/><rect width="11" height="11" x="187" y="22" style="fill:#000"/><rect width="11" height="11" x="198" y="22" style="fill:#000"/><rect width="11" height="11" x="220" y="22" style="fill:#000"/>
<rect width="11" height="11" x="0" y="33" style="fill:#000"/><rect width="11" height="11" x="22" y="33" style="fill:#000"/><rect width="11" height="11" x="33" y="33" style="fill:#000"/><rect width="11" height="11" x="44" y="33" style="fill:#000"/><rect width="11" height="11" x="66" y="33" style="fill:#000"/><rect width="11" height="11" x="88" y="33" style="fill:#000"/><rect width="11" height="11" x="99" y="33" style="fill:#000"/><rect width="11" height="11" x="132" y="33" style="fill:#000"/><rect width="11" height="11" x="154" y="33" style="fill:#000"/><rect width="11" height="11" x="176" y="33" style="fill:#000"/><rect width="11" height="11" x="187" y="33" style="fill:#000"/><rect width="11" height="11" x="198" y="33" style="fill:#000"/><rect width="11" height="11" x="220" y="33" style="fill:#000"/>
<rect width="11" height="11" x="0" y="44" style="fill:#000"/><rect width="11" height="11" x="22" y="44" style="fill:#000"/><rect width="11" height="11" x="33" y="44" style="fill:#000"/><rect width="11" height="11" x="44" y="44" style="fill:#000"/><rect width="11" height="11" x="66" y="44" style="fill:#000"/><rect width="11" height="11" x="99" y="44" style="fill:#000"/><rect width="11" height="11" x="154" y="44" style="fill:#000"/><rect width="11" height="11" x="176" y="44" style="fill:#000"/><rect width="11" height="11" x="187" y="44" style="fill:#000"/><rect width="11" height="11" x="198" y="44" style="fill:#000"/><rect width="11" height="11" x="220" y="44" style="fill:#000"/>
<rect width="11" height="11" x="0" y="55" style="fill:#000"/><rect width="11" height="11" x="66" y="55" style="fill:#000"/><rect width="11" height="11" x="99" y="55" style="fill:#000"/><rect width="11" height="11" x="132" y="55" style="fill:#000"/><rect width="11" height="11" x="154" y="55" style="fill:#000"/><rect width="11" height="11" x="220" y="55" style="fill:#000"/>
<rect width="11" height="11" x="0" y="66" style="fill:#000"/><rect width="11" height="11" x="11" y="66" style="fill:#000"/><rect width="11" height="11" x="22" y="66" style="fill:#000"/><rect width="11" height="11" x="33" y="66" style="fill:#000"/><rect width="11" height="11" x="44" y="66" style="fill:#000"/><rect width="11" height="11" x="55" y="66" style="fill:#000"/><rect width="11" height="11" x="66" y="66" style="fill:#000"/><rect width="11" height="11" x="88" y="66" style="fill:#000"/><rect width="11" height="11" x="110" y="66" style="fill:#000"/><rect width="11" height="11" x="132" y="66" style="fill:#000"/><rect width="11" height="11" x="154" y="66" style="fill:#000"/><rect width="11" height="11" x="165" y="66" style="fill:#000"/><rect width="11" height="11" x="176" y="66" style="fill:#000"/><rect width="11" height="11" x="187" y="66" style="fill:#000"/><rect width="11" height="11" x="198" y="66" style="fill:#000"/><rect width="11" height="11" x="209" y="66" style="fill:#000"/><rect width="11" height="11" x="220" y="66" style="fill:#000"/>
<rect width="11" height="11" x="121" y="77" style="fill:#000"/><rect width="11" height="11" x="132" y="77" style="fill:#000"/>
<rect width="11" height="11" x="33" y="88" style="fill:#000"/><rect width="11" height="11" x="44" y="88" style="fill:#000"/><rect width="11" height="11" x="66" y="88" style="fill:#000"/><rect width="11" height="11" x="77" y="88" style="fill:#000"/><rect width="11" height="11" x="132" y="88" style="fill:#000"/><rect width="11" height="11" x="187" y="88" style="fill:#000"/><rect width="11" height="11" x="198" y="88" style="fill:#000"/>
<rect width="11" height="11" x="22" y="99" style="fill:#000"/><rect width="11" height="11" x="77" y="99" style="fill:#000"/><rect width="11" height="11" x="88" y="99" style="fill:#000"/><rect width="11" height="11" x="99" y="99" style="fill:#000"/><rect width="11" height="11" x="110" y="99" style="fill:#000"/><rect width="11" height="11" x="143" y="99" style="fill:#000"/><rect width="11" height="11" x="176" y="99" style="fill:#000"/><rect width="11" height="11" x="198" y="99" style="fill:#000"/><rect width="11" height="11" x="220" y="99" style="fill:#000"/>
<rect width="11" height="11" x="33" y="110" style="fill:#000"/><rect width="11" height="11" x="66" y="110" style="fill:#000"/><rect width="11" height="11" x="88" y="110" style="fill:#000"/><rect width="11" height="11" x="110" y="110" style="fill:#000"/><rect width="11" height="11" x="132" y="110" style="fill:#000"/><rect width="11" height="11" x="154" y="110" style="fill:#000"/><rect width="11" height="11" x="176" y="110" style="fill:#000"/><rect width="11" height="11" x="187" y="110" style="fill:#000"/><rect width="11" height="11" x="198" y="110" style="fill:#000"/>
<rect width="11" height="11" x="0" y="121" style="fill:#000"/><rect width="11" height="11" x="22" y="121" style="fill:#000"/><rect width="11" height="11" x="55" y="121" style="fill:#000"/><rect width="11" height="11" x="88" y="121" style="fill:#000"/><rect width="11" height="11" x="99" y="121" style="fill:#000"/><rect width="11" height="11" x="110" y="121" style="fill:#000"/><rect width="11" height="11" x="187" y="121" style="fill:#000"/><rect width="11" height="11" x="198" y="121" style="fill:#000"/>
<rect width="11" height="11" x="11" y="132" style="fill:#000"/><rect width="11" height="11" x="33" y="132" style="fill:#000"/><rect width="11" height="11" x="55" y="132" style="fill:#000"/><rect width="11" height="11" x="66" y="132" style="fill:#000"/><rect width="11" height="11" x="88" y="132" style="fill:#000"/><rect width="11" height="11" x="99" y="132" style="fill:#000"/><rect width="11" height="11" x="121" y="132" style="fill:#000"/><rect width="11" height="11" x="132" y="132" style="fill:#000"/><rect width="11" height="11" x="143" y="132" style="fill:#000"/><rect width="11" height="11" x="187" y="132" style="fill:#000"/><rect width="11" height="11" x="198" y="132" style="fill:#000"/>
<rect width="11" height="11" x="88" y="143" style="fill:#000"/><rect width="11" height="11" x="99" y="143" style="fill:#000"/><rect width="11" height="11" x="121" y="143" style="fill:#000"/><rect width="11" height="11" x="132" y="143" style="fill:#000"/><rect width="11" height="11" x="165" y="143" style="fill:#000"/><rect width="11" height="11" x="187" y="143" style="fill:#000"/><rect width="11" height="11" x="209" y="143" style="fill:#000"/><rect width="11" height="11" x="220" y="143" style="fill:#000"/>
<rect width="11" height="11" x="0" y="154" style="fill:#000"/><rect width="11" height="11" x="11" y="154" style="fill:#000"/><rect width="11" height="11" x="22" y="154" style="fill:#000"/><rect width="11" height="11" x="33" y="154" style="fill:#000"/><rect width="11" height="11" x="44" y="154" style="fill:#000"/><rect width="11" height="11" x="55" y="154" style="fill:#000"/><rect width="11" height="11" x="66" y="154" style="fill:#000"/><rect width="11" height="11" x="88" y="154" style="fill:#000"/><rect width="11" height="11" x="99" y="154" style="fill:#000"/><rect width="11" height="11" x="132" y="154" style="fill:#000"/><rect width="11" height="11" x="154" y="154" style="fill:#000"/><rect width="11" height="11" x="165" y="154" style="fill:#000"/><rect width="11" height="11" x="176" y="154" style="fill:#000"/><rect width="11" height="11" x="209" y="154" style="fill:#000"/><rect width="11" height="11" x="220" y="154" style="fill:#000"/>
<rect width="11" height="11" x="0" y="165" style="fill:#000"/><rect width="11" height="11" x="66" y="165" style="fill:#000"/><rect width="11" height="11" x="99" y="165" style="fill:#000"/><rect width="11" height="11" x="110" y="165" style="fill:#000"/><rect width="11" height="11" x="143" y="165" style="fill:#000"/><rect width="11" height="11" x="165" y="165" style="fill:#000"/><rect width="11" height="11" x="176" y="165" style="fill:#000"/><rect width="11" height="11" x="187" y="165" style="fill:#000"/><rect width="11" height="11" x="220" y="165" style="fill:#000"/>
<rect width="11" height="11" x="0" y="176" style="fill:#000"/><rect width="11" height="11" x="22" y="176" style="fill:#000"/><rect width="11" height="11" x="33" y="176" style="fill:#000"/><rect width="11" height="11" x="44" y="176" style="fill:#000"/><rect width="11" height="11" x="66" y="176" style="fill:#000"/><rect width="11" height="11" x="88" y="176" style="fill:#000"/><rect width="11" height="11" x="110" y="176" style="fill:#000"/><rect width="11" height="11" x="132" y="176" style="fill:#000"/><rect width="11" height="11" x="165" y="176" style="fill:#000"/><rect width="11" height="11" x="187" y="176" style="fill:#000"/><rect width="11" height="11" x="198" y="176" style="fill:#000"/><rect width="11" height="11" x="220" y="176" style="fill:#000"/>
<rect width="11" height="11" x="0" y="187" style="fill:#000"/><rect width="11" height="11" x="22" y="187" style="fill:#000"/><rect width="11" height="11" x="33" y="187" style="fill:#000"/><rect width="11" height="11" x="44" y="187" style="fill:#000"/><rect width="11" height="11" x="66" y="187" style="fill:#000"/><rect width="11" height="11" x="88" y="187" style="fill:#000"/><rect width="11" height="11" x="99" y="187" style="fill:#000"/><rect width="11" height="11" x="121" y="187" style="fill:#000"/><rect width="11" height="11" x="143" y="187" style="fill:#000"/><rect width="11" height="11" x="154" y="187" style="fill:#000"/><rect width="11" height="11" x="176" y="187" style="fill:#000"/><rect width="11" height="11" x="187" y="187" style="fill:#000"/><rect width="11" height="11" x="198" y="187" style="fill:#000"/>
<rect width="11" height="11" x="0" y="198" style="fill:#000"/><rect width="11" height="11" x="22" y="198" style="fill:#000"/><rect width="11" height="11" x="33" y="198" style="fill:#000"/><rect width="11" height="11" x="44" y="198" style="fill:#000"/><rect width="11" height="11" x="66" y="198" style="fill:#000"/><rect width="11" height="11" x="110" y="198" style="fill:#000"/><rect width="11" height="11" x="121" y="198" style="fill:#000"/><rect width="11" height="11" x="132" y="198" style="fill:#000"/><rect width="11" height="11" x="143" y="198" style="fill:#000"/><rect width="11" height="11" x="198" y="198" style="fill:#000"/><rect width="11" height="11" x="209" y="198" style="fill:#000"/><rect width="11" height="11" x="220" y="198" style="fill:#000"/>
<rect width="11" height="11" x="0" y="209" style="fill:#000"/><rect width="11" height="11" x="66" y="209" style="fill:#000"/><rect width="11" height="11" x="99" y="209" style="fill:#000"/><rect width="11" height="11" x="143" y="209" style="fill:#000"/><rect width="11" height="11" x="154" y="209" style="fill:#000"/><rect width="11" height="11" x="176" y="209" style="fill:#000"/><rect width="11" height="11" x="198" y="209" style="fill:#000"/><rect width="11" height="11" x="220" y="209" style="fill:#000"/>
<rect width="11" height="11" x="0" y="220" style="fill:#000"/><rect width="11" height="11" x="11" y="220" style="fill:#000"/><rect width="11" height="11" x="22" y="220" style="fill:#000"/><rect width="11" height="11" x="33" y="220" style="fill:#000"/><rect width="11" height="11" x="44" y="220" style="fill:#000"/><rect width="11" height="11" x="55" y="220" style="fill:#000"/><rect width="11" height="11" x="66" y="220" style="fill:#000"/><rect width="11" height="11" x="99" y="220" style="fill:#000"/><rect width="11" height="11" x="132" y="220" style="fill:#000"/><rect width="11" height="11" x="154" y="220" style="fill:#000"/><rect width="11" height="11" x="187" y="220" style="fill:#000"/><rect width="11" height="11" x="198" y="220" style="fill:#000"/><rect width="11" height="11" x="209" y="220" style="fill:#000"/>
</svg>